<?xml version="1.0" encoding="UTF-8"?>
<svg width="54px" height="60px" viewBox="0 0 54 60" version="1.1" xmlns="http://www.w3.org/2000/svg" xmlns:xlink="http://www.w3.org/1999/xlink">
    <title>דניס לוגו סגול</title>
    <g id="Page-1" stroke="none" stroke-width="1" fill="none" fill-rule="evenodd">
        <g id="דניס-לוגו-סגול" fill="#6236FF" fill-rule="nonzero">
            <path d="M19,18.5 L19,20.5303847 C19,26.7042132 16.2510652,32.5574707 11.5,36.5 L11.5,36.5 L11.5,36.5 L11.5,11.5 L24.25,11.5 L24.5852578,11.5030176 C34.5097614,11.681809 42.5,19.7827944 42.5,29.75 C42.5,39.7172056 34.5097614,47.818191 24.5852578,47.9969824 L24.25,48 L0,48 L0,0 L24,0 C40.5685425,0 54,13.4314575 54,30 C54,46.5685425 40.5685425,60 24,60 L11.5,60 L11.5,52.5 L24.25,52.5 C36.8144781,52.5 47,42.3144781 47,29.75 C47,17.3111667 37.0171699,7.20394833 24.6262128,7.00304785 L24.25,7 L7,7 L7,41 L24.75,41 C30.9632034,41 36,35.9632034 36,29.75 C36,23.6338779 31.1193736,18.6576871 25.0403676,18.5036743 L24.75,18.5 L19,18.5 Z M7.5,52.5 L7.5,60 L0,60 L0,52.5 L7.5,52.5 Z" id="Combined-Shape-Copy-4"></path>
        </g>
    </g>
</svg>